<svg viewBox="0 0 24 24" xmlns="http://www.w3.org/2000/svg" preserveAspectRatio="none" fill="#FF5555" stroke="#000000" stroke-width="0.3" stroke-linecap="round" stroke-linejoin="miter">
  <polygon points="12 2 17.88 3.91 21.51 8.91 21.51 15.09 17.88 20.09 12 22 6.12 20.09 2.49 15.09 2.49 8.91 6.12 3.91"/>
  <!-- Equal side marks (tick marks in center of each side, perpendicular to side) -->
  <!-- Side 1: (12, 2) to (17.88, 3.91), midpoint (14.94, 2.955), angle ~18° -->
  <g transform="translate(14.94, 2.955) rotate(108)">
    <line x1="-0.5" y1="0" x2="0.5" y2="0" stroke-width="0.4"/>
  </g>
  <!-- Side 2: (17.88, 3.91) to (21.51, 8.91), midpoint (19.695, 6.41), angle ~54° -->
  <g transform="translate(19.695, 6.41) rotate(144)">
    <line x1="-0.5" y1="0" x2="0.5" y2="0" stroke-width="0.4"/>
  </g>
  <!-- Side 3: (21.51, 8.91) to (21.51, 15.09), midpoint (21.51, 12), angle 90° -->
  <g transform="translate(21.51, 12) rotate(0)">
    <line x1="-0.5" y1="0" x2="0.5" y2="0" stroke-width="0.4"/>
  </g>
  <!-- Side 4: (21.51, 15.09) to (17.88, 20.09), midpoint (19.695, 17.59), angle ~126° -->
  <g transform="translate(19.695, 17.59) rotate(36)">
    <line x1="-0.5" y1="0" x2="0.5" y2="0" stroke-width="0.4"/>
  </g>
  <!-- Side 5: (17.88, 20.09) to (12, 22), midpoint (14.94, 21.045), angle ~162° -->
  <g transform="translate(14.94, 21.045) rotate(72)">
    <line x1="-0.5" y1="0" x2="0.5" y2="0" stroke-width="0.4"/>
  </g>
  <!-- Side 6: (12, 22) to (6.12, 20.09), midpoint (9.06, 21.045), angle ~198° -->
  <g transform="translate(9.06, 21.045) rotate(108)">
    <line x1="-0.5" y1="0" x2="0.5" y2="0" stroke-width="0.4"/>
  </g>
  <!-- Side 7: (6.12, 20.09) to (2.49, 15.09), midpoint (4.305, 17.59), angle ~234° -->
  <g transform="translate(4.305, 17.59) rotate(144)">
    <line x1="-0.5" y1="0" x2="0.5" y2="0" stroke-width="0.4"/>
  </g>
  <!-- Side 8: (2.49, 15.09) to (2.49, 8.91), midpoint (2.49, 12), angle 270° -->
  <g transform="translate(2.49, 12) rotate(0)">
    <line x1="-0.5" y1="0" x2="0.5" y2="0" stroke-width="0.4"/>
  </g>
  <!-- Side 9: (2.49, 8.91) to (6.12, 3.91), midpoint (4.305, 6.41), angle ~306° -->
  <g transform="translate(4.305, 6.41) rotate(36)">
    <line x1="-0.5" y1="0" x2="0.5" y2="0" stroke-width="0.4"/>
  </g>
  <!-- Side 10: (6.12, 3.91) to (12, 2), midpoint (9.06, 2.955), angle ~342° -->
  <g transform="translate(9.06, 2.955) rotate(72)">
    <line x1="-0.5" y1="0" x2="0.5" y2="0" stroke-width="0.4"/>
  </g>

</svg>