<svg viewBox="0 0 24 24" xmlns="http://www.w3.org/2000/svg" preserveAspectRatio="none" fill="#FF3F7F" stroke="#000000" stroke-width="0.3" stroke-linecap="round" stroke-linejoin="miter">
  <polygon points="22 7.5 22 16.5 16.5 22 7.5 22 2 16.5 2 7.5 7.5 2 16.5 2 22 7.5"/>
  <!-- Equal side marks (tick marks in center of each side, perpendicular to side) -->
  <!-- Right vertical side: midpoint (22, 12), horizontal tick -->
  <line x1="21.5" y1="12" x2="22.5" y2="12" stroke-width="0.4"/>
  <!-- Bottom-right diagonal: midpoint (19.25, 19.25), rotated 45째 -->
  <g transform="translate(19.25, 19.25) rotate(45)">
    <line x1="-0.5" y1="0" x2="0.5" y2="0" stroke-width="0.4"/>
  </g>
  <!-- Bottom horizontal: midpoint (12, 22), vertical tick -->
  <line x1="12" y1="21.5" x2="12" y2="22.5" stroke-width="0.4"/>
  <!-- Bottom-left diagonal: midpoint (4.75, 19.25), rotated -45째 -->
  <g transform="translate(4.75, 19.25) rotate(-45)">
    <line x1="-0.5" y1="0" x2="0.5" y2="0" stroke-width="0.4"/>
  </g>
  <!-- Left vertical: midpoint (2, 12), horizontal tick -->
  <line x1="1.5" y1="12" x2="2.5" y2="12" stroke-width="0.4"/>
  <!-- Top-left diagonal: midpoint (4.75, 4.75), rotated 45째 -->
  <g transform="translate(4.75, 4.75) rotate(45)">
    <line x1="-0.5" y1="0" x2="0.5" y2="0" stroke-width="0.4"/>
  </g>
  <!-- Top horizontal: midpoint (12, 2), vertical tick -->
  <line x1="12" y1="1.5" x2="12" y2="2.5" stroke-width="0.4"/>
  <!-- Top-right diagonal: midpoint (19.25, 4.75), rotated -45째 -->
  <g transform="translate(19.25, 4.75) rotate(-45)">
    <line x1="-0.5" y1="0" x2="0.5" y2="0" stroke-width="0.4"/>
  </g>
  
</svg>