<svg viewBox="0 0 24 24" xmlns="http://www.w3.org/2000/svg" preserveAspectRatio="none" fill="#FEB21A" stroke="#000000" stroke-width="0.3" stroke-linecap="round" stroke-linejoin="miter">
  <polygon points="4 6 20 6 18 18 2 18"/>
  <!-- Equal side marks (2 ticks on top/bottom, 1 tick on left/right) -->
  <!-- Top side: midpoint (12, 6), 2 vertical ticks close together -->
  <line x1="11.5" y1="5.5" x2="11.5" y2="6.5" stroke-width="0.4"/>
  <line x1="12.5" y1="5.5" x2="12.5" y2="6.5" stroke-width="0.4"/>
  <!-- Bottom side: midpoint (10, 18), 2 vertical ticks close together -->
  <line x1="9.5" y1="17.5" x2="9.5" y2="18.5" stroke-width="0.4"/>
  <line x1="10.5" y1="17.5" x2="10.5" y2="18.5" stroke-width="0.4"/>
  <!-- Right side: midpoint (19, 12), 1 tick rotated -->
  <g transform="translate(19, 12) rotate(180)">
    <line x1="-0.5" y1="0" x2="0.5" y2="0" stroke-width="0.4"/>
  </g>
  <!-- Left side: midpoint (3, 12), 1 tick rotated -->
  <g transform="translate(3, 12) rotate(180)">
    <line x1="-0.5" y1="0" x2="0.5" y2="0" stroke-width="0.4"/>
  </g>
  <!-- Interior angle arcs (wedge style) -->
  <path d="M4 6 L6 6 A2 2 0 0 1 3.7 7.6 Z" fill="none" stroke="#000000" stroke-width="0.3"/>
  <path d="M20 6 L18 6 A2 2 0 0 0 19.75 7.6 Z" fill="none" stroke="#000000" stroke-width="0.3"/>
  <path d="M20 6 L17.5 6 A2.5 2.5 0 0 0 19.64 8.1 Z" fill="none" stroke="#000000" stroke-width="0.3"/>
  <path d="M18 18 L16 18 A2 2 0 0 1 18.3 16.4 Z" fill="none" stroke="#000000" stroke-width="0.3"/>
  <path d="M2 18 L4 18 A2 2 0 0 0 2.25 16.4 Z" fill="none" stroke="#000000" stroke-width="0.3"/>
  <path d="M2 18 L4.5 18 A2.5 2.5 0 0 0 2.3 15.9 Z" fill="none" stroke="#000000" stroke-width="0.3"/>
</svg>