<svg viewBox="0 0 24 24" xmlns="http://www.w3.org/2000/svg" preserveAspectRatio="none" fill="#60B5FF" stroke="#000000" stroke-width="0.3" stroke-linecap="round" stroke-linejoin="miter">
  <polygon points="12 2 19 12 12 22 5 12"/>
  <!-- Equal side marks (tick marks on each side, centered and perpendicular to side) -->
  <!-- Top side: from (12,2) to (19,12), midpoint (15.5,7), perpendicular at 135째 -->
  <line x1="15.146" y1="7.354" x2="15.854" y2="6.646" stroke="#000" stroke-width="0.5"/>
  <!-- Right side: from (19,12) to (12,22), midpoint (15.5,17), perpendicular at 45째 -->
  <line x1="15.146" y1="16.646" x2="15.854" y2="17.354" stroke="#000" stroke-width="0.5"/>
  <!-- Bottom side: from (12,22) to (5,12), midpoint (8.5,17), perpendicular at 135째 -->
  <line x1="8.146" y1="17.354" x2="8.854" y2="16.646" stroke="#000" stroke-width="0.5"/>
  <!-- Left side: from (5,12) to (12,2), midpoint (8.5,7), perpendicular at 45째 -->
  <line x1="8.146" y1="6.646" x2="8.854" y2="7.354" stroke="#000" stroke-width="0.5"/>
  <!-- Interior angle arcs -->
  <path d="M12 2 L12.861 3.228 A1.8 1.8 0 0 1 11.139 3.228 Z" fill="none" stroke="#000000" stroke-width="0.3"/>
  <path d="M19 12 L18.139 10.772 A1.8 1.8 0 0 0 18.139 13.228 Z" fill="none" stroke="#000000" stroke-width="0.3"/>
  <path d="M19 12 L17.8 10.5 A2.3 2.3 0 0 0 17.8 13.5 Z" fill="none" stroke="#000000" stroke-width="0.3"/>
  <path d="M12 22 L11.139 20.772 A1.8 1.8 0 0 1 12.861 20.772 Z" fill="none" stroke="#000000" stroke-width="0.3"/>
  <path d="M5 12 L5.861 13.228 A1.8 1.8 0 0 0 5.861 10.772 Z" fill="none" stroke="#000000" stroke-width="0.3"/>
  <path d="M5 12 L6.2 13.5 A2.3 2.3 0 0 0 6.2 10.5 Z" fill="none" stroke="#000000" stroke-width="0.3"/>
</svg>